<?xml version="1.0" standalone="no"?><!DOCTYPE svg PUBLIC "-//W3C//DTD SVG 1.1//EN" "http://www.w3.org/Graphics/SVG/1.1/DTD/svg11.dtd"><svg t="1580223348399" class="icon" viewBox="0 0 1157 1024" version="1.1" xmlns="http://www.w3.org/2000/svg" p-id="11566" xmlns:xlink="http://www.w3.org/1999/xlink" width="225.9765625" height="200"><defs><style type="text/css"></style></defs><path d="M75.093 803.271V220.73a72.818 72.818 0 0 1 72.818-72.818h509.725V75.093H147.91A145.636 145.636 0 0 0 2.276 220.73V803.27A145.636 145.636 0 0 0 147.91 948.907h509.725v-72.818H147.91a72.818 72.818 0 0 1-72.818-72.818z" fill="#666666" p-id="11567"></path><path d="M1019.176 524.525c1.456-3.933 2.548-8.083 2.548-12.525s-1.092-8.592-2.548-12.525l2.403-2.403-9.976-9.976-1.457-1.383-217.725-217.798a36.336 36.336 0 0 0-51.263 51.264L897.716 475.59H475.59a36.409 36.409 0 0 0 0 72.818h422.125L741.23 704.82a36.336 36.336 0 0 0 51.264 51.264l217.725-217.798 1.457-1.383 9.976-9.976-2.476-2.403z" fill="#f4ea2a" p-id="11568" data-spm-anchor-id="a313x.7781069.0.i19" class="selected"></path></svg>