<?xml version="1.0" standalone="no"?><!DOCTYPE svg PUBLIC "-//W3C//DTD SVG 1.1//EN" "http://www.w3.org/Graphics/SVG/1.1/DTD/svg11.dtd"><svg t="1580215038046" class="icon" viewBox="0 0 1204 1024" version="1.1" xmlns="http://www.w3.org/2000/svg" p-id="8618" xmlns:xlink="http://www.w3.org/1999/xlink" width="235.15625" height="200"><defs><style type="text/css"></style></defs><path d="M712.602805 78.787765c-63.608471-105.050353-175.585882-105.110588-239.555765 0.301176L27.908216 812.875294c-64.451765 106.315294-12.769882 203.896471 109.206589 206.366118h925.214117c122.759529 2.409412 174.200471-74.691765 110.049883-180.705883l-13.733647-22.708705-9.456942-15.661177a29.394824 29.394824 0 0 0-41.140705-9.878588 31.081412 31.081412 0 0 0-9.577412 42.164706l9.456941 15.661176 13.854118 22.768941c37.526588 62.042353 19.817412 88.726588-58.910118 87.160471H137.656922c-75.113412-1.505882-99.087059-46.863059-59.030588-112.820706L523.704922 111.435294c40.538353-66.861176 97.882353-66.861176 138.360471 0l359.604706 575.488a29.394824 29.394824 0 0 0 41.200941 9.276235 31.081412 31.081412 0 0 0 9.035294-42.285176L712.602805 78.787765z" fill="#f4ea2a" p-id="8619" data-spm-anchor-id="a313x.7781069.0.i3" class="selected"></path><path d="M564.785393 641.746824c0 16.865882 13.372235 30.599529 29.816471 30.599529a30.238118 30.238118 0 0 0 29.876705-30.599529V251.542588a30.238118 30.238118 0 0 0-29.876705-30.659764 30.238118 30.238118 0 0 0-29.816471 30.659764v390.204236zM564.725158 833.174588c0.120471 16.865882 13.552941 30.479059 30.057411 30.358588a30.238118 30.238118 0 0 0 29.57553-30.84047l-0.542118-78.004706a30.238118 30.238118 0 0 0-30.057412-30.418824 30.238118 30.238118 0 0 0-29.575529 30.840471l0.542118 78.064941z" fill="#f4ea2a" p-id="8620" data-spm-anchor-id="a313x.7781069.0.i4" class="selected"></path></svg>